<?xml version="1.0" encoding="UTF-8"?>
<svg id="Layer_2" data-name="Layer 2" xmlns="http://www.w3.org/2000/svg" viewBox="0 0 64 70.53">
  <defs>
    <style>
      .cls-1 {
        fill: #fff;
      }

      .cls-2 {
        fill: #bc8200;
      }
    </style>
  </defs>
  <g id="Layer_16" data-name="Layer 16">
    <g>
      <path class="cls-1" d="M52.98,67.03c-1.3,0-2.56-.34-3.73-1.02L7.25,41.76c-2.35-1.36-3.75-3.78-3.75-6.5s1.4-5.14,3.75-6.5L49.25,4.52c1.17-.68,2.43-1.02,3.73-1.02,3.61,0,7.52,2.87,7.52,7.52V59.51c0,4.64-3.9,7.52-7.52,7.52Z"/>
      <path class="cls-2" d="M52.98,0V7c1.93,0,4.02,1.54,4.02,4.02V59.51c0,2.48-2.08,4.02-4.02,4.02-.68,0-1.35-.19-1.98-.55L9,38.73c-1.81-1.04-2-2.77-2-3.46s.19-2.42,2-3.46L51,7.55c.63-.37,1.3-.55,1.98-.55V0m0,0c-1.83,0-3.71,.47-5.48,1.49L5.5,25.74c-7.33,4.23-7.33,14.82,0,19.05l42,24.25c1.77,1.02,3.65,1.49,5.48,1.49,5.75,0,11.02-4.6,11.02-11.02V11.02C64,4.59,58.73,0,52.98,0h0Z"/>
    </g>
  </g>
</svg>