<?xml version="1.0" encoding="UTF-8"?>
<svg id="Layer_2" data-name="Layer 2" xmlns="http://www.w3.org/2000/svg" viewBox="0 0 64 70.53">
  <defs>
    <style>
      .cls-1 {
        fill: #fff;
      }

      .cls-2 {
        fill: #282828;
      }
    </style>
  </defs>
  <g id="Layer_17" data-name="Layer 17">
    <g>
      <path class="cls-1" d="M11.02,67.03c-3.61,0-7.52-2.87-7.52-7.52V11.02c0-4.64,3.9-7.52,7.52-7.52,1.3,0,2.56,.34,3.73,1.02L56.75,28.77c2.35,1.36,3.75,3.78,3.75,6.5s-1.4,5.14-3.75,6.5L14.75,66.01c-1.17,.68-2.43,1.02-3.73,1.02h0Z"/>
      <path class="cls-2" d="M11.02,7c.68,0,1.35,.19,1.98,.55L55,31.8c1.81,1.04,2,2.77,2,3.46s-.19,2.42-2,3.46L13,62.98c-.63,.37-1.3,.55-1.98,.55-1.93,0-4.02-1.54-4.02-4.02V11.02c0-2.48,2.08-4.02,4.02-4.02m0-7C5.27,0,0,4.59,0,11.02V59.51c0,6.42,5.27,11.02,11.02,11.02,1.83,0,3.71-.47,5.48-1.49l42-24.25c7.33-4.23,7.33-14.82,0-19.05L16.5,1.49c-1.77-1.02-3.65-1.49-5.48-1.49h0Z"/>
    </g>
  </g>
</svg>