<?xml version="1.0" encoding="UTF-8"?>
<svg id="Layer_2" data-name="Layer 2" xmlns="http://www.w3.org/2000/svg" viewBox="0 0 191 60.71">
  <defs>
    <style>
      .cls-1 {
        fill: #fff;
      }

      .cls-2 {
        fill: #f55;
      }
    </style>
  </defs>
  <g id="on_off" data-name="on/off">
    <g>
      <path class="cls-1" d="M30.35,57.21c-14.81,0-26.85-12.05-26.85-26.85S15.55,3.5,30.35,3.5H160.65c14.81,0,26.85,12.05,26.85,26.85s-12.05,26.85-26.85,26.85H30.35Z"/>
      <path class="cls-2" d="M160.65,7c12.88,0,23.35,10.48,23.35,23.35s-10.48,23.35-23.35,23.35H30.35c-12.88,0-23.35-10.48-23.35-23.35S17.48,7,30.35,7H160.65m0-7H30.35C13.59,0,0,13.59,0,30.35H0c0,16.76,13.59,30.35,30.35,30.35H160.65c16.76,0,30.35-13.59,30.35-30.35h0c0-16.76-13.59-30.35-30.35-30.35h0Z"/>
    </g>
  </g>
</svg>