<?xml version="1.0" encoding="UTF-8"?>
<svg id="Layer_2" data-name="Layer 2" xmlns="http://www.w3.org/2000/svg" viewBox="0 0 1558 724">
  <defs>
    <style>
      .cls-1 {
        fill: #fff;
      }

      .cls-2 {
        opacity: .5;
      }

      .cls-3 {
        fill: #f55;
      }

      .cls-4 {
        fill: #282828;
      }

      .cls-5 {
        font-size: 36px;
      }

      .cls-5, .cls-6 {
        font-family: PressStart2P-Regular, 'Press Start 2P';
      }

      .cls-7 {
        fill: #c1c1c1;
      }

      .cls-6 {
        font-size: 12px;
      }
    </style>
  </defs>
  <g id="Piano">
    <g class="cls-2">
      <rect x="43" y="39" width="1515" height="685" rx="61" ry="61"/>
    </g>
    <g>
      <rect x="3.5" y="8.5" width="1508" height="678" rx="57.5" ry="57.5"/>
      <path class="cls-7" d="M1454,12c29.78,0,54,24.22,54,54V629c0,29.78-24.22,54-54,54H61c-29.78,0-54-24.22-54-54V66C7,36.22,31.22,12,61,12H1454m0-7H61C27.31,5,0,32.31,0,66V629c0,33.69,27.31,61,61,61H1454c33.69,0,61-27.31,61-61V66c0-33.69-27.31-61-61-61h0Z"/>
    </g>
    <g>
      <rect class="cls-1" x="116.5" y="264.5" width="122" height="380" rx="13.5" ry="13.5"/>
      <path d="M225,268c5.51,0,10,4.49,10,10v353c0,5.51-4.49,10-10,10h-95c-5.51,0-10-4.49-10-10V278c0-5.51,4.49-10,10-10h95m0-7h-95c-9.39,0-17,7.61-17,17v353c0,9.39,7.61,17,17,17h95c9.39,0,17-7.61,17-17V278c0-9.39-7.61-17-17-17h0Z"/>
    </g>
    <g>
      <rect class="cls-1" x="245.5" y="264.5" width="122" height="380" rx="13.5" ry="13.5"/>
      <path d="M354,268c5.51,0,10,4.49,10,10v353c0,5.51-4.49,10-10,10h-95c-5.51,0-10-4.49-10-10V278c0-5.51,4.49-10,10-10h95m0-7h-95c-9.39,0-17,7.61-17,17v353c0,9.39,7.61,17,17,17h95c9.39,0,17-7.61,17-17V278c0-9.39-7.61-17-17-17h0Z"/>
    </g>
    <g>
      <rect class="cls-1" x="374.5" y="264.5" width="122" height="380" rx="13.5" ry="13.5"/>
      <path d="M483,268c5.51,0,10,4.49,10,10v353c0,5.51-4.49,10-10,10h-95c-5.51,0-10-4.49-10-10V278c0-5.51,4.49-10,10-10h95m0-7h-95c-9.39,0-17,7.61-17,17v353c0,9.39,7.61,17,17,17h95c9.39,0,17-7.61,17-17V278c0-9.39-7.61-17-17-17h0Z"/>
    </g>
    <g>
      <rect class="cls-1" x="503.5" y="264.5" width="122" height="380" rx="13.5" ry="13.5"/>
      <path d="M612,268c5.51,0,10,4.49,10,10v353c0,5.51-4.49,10-10,10h-95c-5.51,0-10-4.49-10-10V278c0-5.51,4.49-10,10-10h95m0-7h-95c-9.39,0-17,7.61-17,17v353c0,9.39,7.61,17,17,17h95c9.39,0,17-7.61,17-17V278c0-9.39-7.61-17-17-17h0Z"/>
    </g>
    <g>
      <rect class="cls-1" x="632.5" y="264.5" width="122" height="380" rx="13.5" ry="13.5"/>
      <path d="M741,268c5.51,0,10,4.49,10,10v353c0,5.51-4.49,10-10,10h-95c-5.51,0-10-4.49-10-10V278c0-5.51,4.49-10,10-10h95m0-7h-95c-9.39,0-17,7.61-17,17v353c0,9.39,7.61,17,17,17h95c9.39,0,17-7.61,17-17V278c0-9.39-7.61-17-17-17h0Z"/>
    </g>
    <g>
      <rect class="cls-1" x="761.5" y="264.5" width="122" height="380" rx="13.5" ry="13.5"/>
      <path d="M870,268c5.51,0,10,4.49,10,10v353c0,5.51-4.49,10-10,10h-95c-5.51,0-10-4.49-10-10V278c0-5.51,4.49-10,10-10h95m0-7h-95c-9.39,0-17,7.61-17,17v353c0,9.39,7.61,17,17,17h95c9.39,0,17-7.61,17-17V278c0-9.39-7.61-17-17-17h0Z"/>
    </g>
    <g>
      <rect class="cls-1" x="890.5" y="264.5" width="122" height="380" rx="13.5" ry="13.5"/>
      <path d="M999,268c5.51,0,10,4.49,10,10v353c0,5.51-4.49,10-10,10h-95c-5.51,0-10-4.49-10-10V278c0-5.51,4.49-10,10-10h95m0-7h-95c-9.39,0-17,7.61-17,17v353c0,9.39,7.61,17,17,17h95c9.39,0,17-7.61,17-17V278c0-9.39-7.61-17-17-17h0Z"/>
    </g>
    <g>
      <rect class="cls-1" x="1019.5" y="264.5" width="122" height="380" rx="13.5" ry="13.5"/>
      <path d="M1128,268c5.51,0,10,4.49,10,10v353c0,5.51-4.49,10-10,10h-95c-5.51,0-10-4.49-10-10V278c0-5.51,4.49-10,10-10h95m0-7h-95c-9.39,0-17,7.61-17,17v353c0,9.39,7.61,17,17,17h95c9.39,0,17-7.61,17-17V278c0-9.39-7.61-17-17-17h0Z"/>
    </g>
    <g>
      <rect class="cls-1" x="1148.5" y="264.5" width="122" height="380" rx="13.5" ry="13.5"/>
      <path d="M1257,268c5.51,0,10,4.49,10,10v353c0,5.51-4.49,10-10,10h-95c-5.51,0-10-4.49-10-10V278c0-5.51,4.49-10,10-10h95m0-7h-95c-9.39,0-17,7.61-17,17v353c0,9.39,7.61,17,17,17h95c9.39,0,17-7.61,17-17V278c0-9.39-7.61-17-17-17h0Z"/>
    </g>
    <g>
      <rect class="cls-1" x="1277.5" y="264.5" width="122" height="380" rx="13.5" ry="13.5"/>
      <path d="M1386,268c5.51,0,10,4.49,10,10v353c0,5.51-4.49,10-10,10h-95c-5.51,0-10-4.49-10-10V278c0-5.51,4.49-10,10-10h95m0-7h-95c-9.39,0-17,7.61-17,17v353c0,9.39,7.61,17,17,17h95c9.39,0,17-7.61,17-17V278c0-9.39-7.61-17-17-17h0Z"/>
    </g>
    <g>
      <rect x="203.5" y="127.5" width="77" height="380" rx="13.5" ry="13.5"/>
      <path class="cls-1" d="M267,131c5.51,0,10,4.49,10,10V494c0,5.51-4.49,10-10,10h-50c-5.51,0-10-4.49-10-10V141c0-5.51,4.49-10,10-10h50m0-7h-50c-9.39,0-17,7.61-17,17V494c0,9.39,7.61,17,17,17h50c9.39,0,17-7.61,17-17V141c0-9.39-7.61-17-17-17h0Z"/>
    </g>
    <g>
      <rect x="332.5" y="127.5" width="77" height="380" rx="13.5" ry="13.5"/>
      <path class="cls-1" d="M396,131c5.51,0,10,4.49,10,10V494c0,5.51-4.49,10-10,10h-50c-5.51,0-10-4.49-10-10V141c0-5.51,4.49-10,10-10h50m0-7h-50c-9.39,0-17,7.61-17,17V494c0,9.39,7.61,17,17,17h50c9.39,0,17-7.61,17-17V141c0-9.39-7.61-17-17-17h0Z"/>
    </g>
    <g>
      <rect x="461.5" y="127.5" width="77" height="380" rx="13.5" ry="13.5"/>
      <path class="cls-1" d="M525,131c5.51,0,10,4.49,10,10V494c0,5.51-4.49,10-10,10h-50c-5.51,0-10-4.49-10-10V141c0-5.51,4.49-10,10-10h50m0-7h-50c-9.39,0-17,7.61-17,17V494c0,9.39,7.61,17,17,17h50c9.39,0,17-7.61,17-17V141c0-9.39-7.61-17-17-17h0Z"/>
    </g>
    <g>
      <rect x="590.5" y="127.5" width="77" height="380" rx="13.5" ry="13.5"/>
      <path class="cls-1" d="M654,131c5.51,0,10,4.49,10,10V494c0,5.51-4.49,10-10,10h-50c-5.51,0-10-4.49-10-10V141c0-5.51,4.49-10,10-10h50m0-7h-50c-9.39,0-17,7.61-17,17V494c0,9.39,7.61,17,17,17h50c9.39,0,17-7.61,17-17V141c0-9.39-7.61-17-17-17h0Z"/>
    </g>
    <g>
      <rect x="719.5" y="127.5" width="77" height="380" rx="13.5" ry="13.5"/>
      <path class="cls-1" d="M783,131c5.51,0,10,4.49,10,10V494c0,5.51-4.49,10-10,10h-50c-5.51,0-10-4.49-10-10V141c0-5.51,4.49-10,10-10h50m0-7h-50c-9.39,0-17,7.61-17,17V494c0,9.39,7.61,17,17,17h50c9.39,0,17-7.61,17-17V141c0-9.39-7.61-17-17-17h0Z"/>
    </g>
    <g>
      <rect x="848.5" y="127.5" width="77" height="380" rx="13.5" ry="13.5"/>
      <path class="cls-1" d="M912,131c5.51,0,10,4.49,10,10V494c0,5.51-4.49,10-10,10h-50c-5.51,0-10-4.49-10-10V141c0-5.51,4.49-10,10-10h50m0-7h-50c-9.39,0-17,7.61-17,17V494c0,9.39,7.61,17,17,17h50c9.39,0,17-7.61,17-17V141c0-9.39-7.61-17-17-17h0Z"/>
    </g>
    <g>
      <rect x="977.5" y="127.5" width="77" height="380" rx="13.5" ry="13.5"/>
      <path class="cls-1" d="M1041,131c5.51,0,10,4.49,10,10V494c0,5.51-4.49,10-10,10h-50c-5.51,0-10-4.49-10-10V141c0-5.51,4.49-10,10-10h50m0-7h-50c-9.39,0-17,7.61-17,17V494c0,9.39,7.61,17,17,17h50c9.39,0,17-7.61,17-17V141c0-9.39-7.61-17-17-17h0Z"/>
    </g>
    <g>
      <rect x="1106.5" y="127.5" width="77" height="380" rx="13.5" ry="13.5"/>
      <path class="cls-1" d="M1170,131c5.51,0,10,4.49,10,10V494c0,5.51-4.49,10-10,10h-50c-5.51,0-10-4.49-10-10V141c0-5.51,4.49-10,10-10h50m0-7h-50c-9.39,0-17,7.61-17,17V494c0,9.39,7.61,17,17,17h50c9.39,0,17-7.61,17-17V141c0-9.39-7.61-17-17-17h0Z"/>
    </g>
    <g>
      <rect x="1235.5" y="127.5" width="77" height="380" rx="13.5" ry="13.5"/>
      <path class="cls-1" d="M1299,131c5.51,0,10,4.49,10,10V494c0,5.51-4.49,10-10,10h-50c-5.51,0-10-4.49-10-10V141c0-5.51,4.49-10,10-10h50m0-7h-50c-9.39,0-17,7.61-17,17V494c0,9.39,7.61,17,17,17h50c9.39,0,17-7.61,17-17V141c0-9.39-7.61-17-17-17h0Z"/>
    </g>
    <g>
      <rect x="3.5" y="3.5" width="1508" height="273" rx="59" ry="59"/>
      <path class="cls-7" d="M1452.5,7c30.6,0,55.5,24.9,55.5,55.5V217.5c0,30.6-24.9,55.5-55.5,55.5H62.5c-30.6,0-55.5-24.9-55.5-55.5V62.5C7,31.9,31.9,7,62.5,7H1452.5m0-7H62.5C27.98,0,0,27.98,0,62.5V217.5c0,34.52,27.98,62.5,62.5,62.5H1452.5c34.52,0,62.5-27.98,62.5-62.5V62.5c0-34.52-27.98-62.5-62.5-62.5h0Z"/>
    </g>
    <g>
      <rect class="cls-1" x="619.5" y="53.5" width="277" height="100" rx="14.5" ry="14.5"/>
      <path class="cls-4" d="M882,57c6.07,0,11,4.93,11,11v71c0,6.07-4.93,11-11,11h-248c-6.07,0-11-4.93-11-11V68c0-6.07,4.93-11,11-11h248m0-7h-248c-9.94,0-18,8.06-18,18v71c0,9.94,8.06,18,18,18h248c9.94,0,18-8.06,18-18V68c0-9.94-8.06-18-18-18h0Z"/>
    </g>
    <g>
      <path class="cls-1" d="M692.35,240.21c-14.81,0-26.85-12.05-26.85-26.85s12.05-26.85,26.85-26.85h130.29c14.81,0,26.85,12.05,26.85,26.85s-12.05,26.85-26.85,26.85h-130.29Z"/>
      <path class="cls-3" d="M822.65,190c12.88,0,23.35,10.48,23.35,23.35s-10.48,23.35-23.35,23.35h-130.29c-12.88,0-23.35-10.48-23.35-23.35s10.48-23.35,23.35-23.35h130.29m0-7h-130.29c-16.76,0-30.35,13.59-30.35,30.35h0c0,16.76,13.59,30.35,30.35,30.35h130.29c16.76,0,30.35-13.59,30.35-30.35h0c0-16.76-13.59-30.35-30.35-30.35h0Z"/>
    </g>
    <text class="cls-6" transform="translate(716 221)"><tspan x="0" y="0">ON / OFF</tspan></text>
    <text class="cls-5" transform="translate(671 124)"><tspan x="0" y="0">PIANO</tspan></text>
  </g>
</svg>