<?xml version="1.0" encoding="UTF-8"?>
<svg id="Layer_2" data-name="Layer 2" xmlns="http://www.w3.org/2000/svg" viewBox="0 0 1555 724">
  <defs>
    <style>
      .cls-1 {
        fill: #fff;
      }

      .cls-2 {
        fill: #720000;
      }

      .cls-3 {
        opacity: .5;
      }

      .cls-4 {
        fill: #fc03f0;
      }

      .cls-4, .cls-5, .cls-6, .cls-7, .cls-8 {
        stroke: #000;
        stroke-miterlimit: 10;
      }

      .cls-9 {
        fill: #f55;
      }

      .cls-5 {
        fill: #084fff;
      }

      .cls-10 {
        fill: #282828;
      }

      .cls-6 {
        fill: #fc0606;
      }

      .cls-7 {
        fill: #26ff00;
      }

      .cls-11 {
        font-family: PressStart2P-Regular, 'Press Start 2P';
        font-size: 12px;
      }

      .cls-8 {
        fill: aqua;
      }
    </style>
  </defs>
  <g id="Synth">
    <g class="cls-3">
      <rect x="40" y="39" width="1515" height="685" rx="61" ry="61"/>
    </g>
    <g>
      <rect class="cls-2" x="3.5" y="8.5" width="1508" height="678" rx="57.5" ry="57.5"/>
      <path d="M1454,12c29.78,0,54,24.22,54,54V629c0,29.78-24.22,54-54,54H61c-29.78,0-54-24.22-54-54V66C7,36.22,31.22,12,61,12H1454m0-7H61C27.31,5,0,32.31,0,66V629c0,33.69,27.31,61,61,61H1454c33.69,0,61-27.31,61-61V66c0-33.69-27.31-61-61-61h0Z"/>
    </g>
    <g>
      <rect class="cls-1" x="116.5" y="264.5" width="122" height="380" rx="13.5" ry="13.5"/>
      <path d="M225,268c5.51,0,10,4.49,10,10v353c0,5.51-4.49,10-10,10h-95c-5.51,0-10-4.49-10-10V278c0-5.51,4.49-10,10-10h95m0-7h-95c-9.39,0-17,7.61-17,17v353c0,9.39,7.61,17,17,17h95c9.39,0,17-7.61,17-17V278c0-9.39-7.61-17-17-17h0Z"/>
    </g>
    <g>
      <rect class="cls-1" x="245.5" y="264.5" width="122" height="380" rx="13.5" ry="13.5"/>
      <path d="M354,268c5.51,0,10,4.49,10,10v353c0,5.51-4.49,10-10,10h-95c-5.51,0-10-4.49-10-10V278c0-5.51,4.49-10,10-10h95m0-7h-95c-9.39,0-17,7.61-17,17v353c0,9.39,7.61,17,17,17h95c9.39,0,17-7.61,17-17V278c0-9.39-7.61-17-17-17h0Z"/>
    </g>
    <g>
      <rect class="cls-1" x="374.5" y="264.5" width="122" height="380" rx="13.5" ry="13.5"/>
      <path d="M483,268c5.51,0,10,4.49,10,10v353c0,5.51-4.49,10-10,10h-95c-5.51,0-10-4.49-10-10V278c0-5.51,4.49-10,10-10h95m0-7h-95c-9.39,0-17,7.61-17,17v353c0,9.39,7.61,17,17,17h95c9.39,0,17-7.61,17-17V278c0-9.39-7.61-17-17-17h0Z"/>
    </g>
    <g>
      <rect class="cls-1" x="503.5" y="264.5" width="122" height="380" rx="13.5" ry="13.5"/>
      <path d="M612,268c5.51,0,10,4.49,10,10v353c0,5.51-4.49,10-10,10h-95c-5.51,0-10-4.49-10-10V278c0-5.51,4.49-10,10-10h95m0-7h-95c-9.39,0-17,7.61-17,17v353c0,9.39,7.61,17,17,17h95c9.39,0,17-7.61,17-17V278c0-9.39-7.61-17-17-17h0Z"/>
    </g>
    <g>
      <rect class="cls-1" x="632.5" y="264.5" width="122" height="380" rx="13.5" ry="13.5"/>
      <path d="M741,268c5.51,0,10,4.49,10,10v353c0,5.51-4.49,10-10,10h-95c-5.51,0-10-4.49-10-10V278c0-5.51,4.49-10,10-10h95m0-7h-95c-9.39,0-17,7.61-17,17v353c0,9.39,7.61,17,17,17h95c9.39,0,17-7.61,17-17V278c0-9.39-7.61-17-17-17h0Z"/>
    </g>
    <g>
      <rect class="cls-1" x="761.5" y="264.5" width="122" height="380" rx="13.5" ry="13.5"/>
      <path d="M870,268c5.51,0,10,4.49,10,10v353c0,5.51-4.49,10-10,10h-95c-5.51,0-10-4.49-10-10V278c0-5.51,4.49-10,10-10h95m0-7h-95c-9.39,0-17,7.61-17,17v353c0,9.39,7.61,17,17,17h95c9.39,0,17-7.61,17-17V278c0-9.39-7.61-17-17-17h0Z"/>
    </g>
    <g>
      <rect class="cls-1" x="890.5" y="264.5" width="122" height="380" rx="13.5" ry="13.5"/>
      <path d="M999,268c5.51,0,10,4.49,10,10v353c0,5.51-4.49,10-10,10h-95c-5.51,0-10-4.49-10-10V278c0-5.51,4.49-10,10-10h95m0-7h-95c-9.39,0-17,7.61-17,17v353c0,9.39,7.61,17,17,17h95c9.39,0,17-7.61,17-17V278c0-9.39-7.61-17-17-17h0Z"/>
    </g>
    <g>
      <rect class="cls-1" x="1019.5" y="264.5" width="122" height="380" rx="13.5" ry="13.5"/>
      <path d="M1128,268c5.51,0,10,4.49,10,10v353c0,5.51-4.49,10-10,10h-95c-5.51,0-10-4.49-10-10V278c0-5.51,4.49-10,10-10h95m0-7h-95c-9.39,0-17,7.61-17,17v353c0,9.39,7.61,17,17,17h95c9.39,0,17-7.61,17-17V278c0-9.39-7.61-17-17-17h0Z"/>
    </g>
    <g>
      <rect class="cls-1" x="1148.5" y="264.5" width="122" height="380" rx="13.5" ry="13.5"/>
      <path d="M1257,268c5.51,0,10,4.49,10,10v353c0,5.51-4.49,10-10,10h-95c-5.51,0-10-4.49-10-10V278c0-5.51,4.49-10,10-10h95m0-7h-95c-9.39,0-17,7.61-17,17v353c0,9.39,7.61,17,17,17h95c9.39,0,17-7.61,17-17V278c0-9.39-7.61-17-17-17h0Z"/>
    </g>
    <g>
      <rect class="cls-1" x="1277.5" y="264.5" width="122" height="380" rx="13.5" ry="13.5"/>
      <path d="M1386,268c5.51,0,10,4.49,10,10v353c0,5.51-4.49,10-10,10h-95c-5.51,0-10-4.49-10-10V278c0-5.51,4.49-10,10-10h95m0-7h-95c-9.39,0-17,7.61-17,17v353c0,9.39,7.61,17,17,17h95c9.39,0,17-7.61,17-17V278c0-9.39-7.61-17-17-17h0Z"/>
    </g>
    <g>
      <rect x="203.5" y="127.5" width="77" height="380" rx="13.5" ry="13.5"/>
      <path class="cls-1" d="M267,131c5.51,0,10,4.49,10,10V494c0,5.51-4.49,10-10,10h-50c-5.51,0-10-4.49-10-10V141c0-5.51,4.49-10,10-10h50m0-7h-50c-9.39,0-17,7.61-17,17V494c0,9.39,7.61,17,17,17h50c9.39,0,17-7.61,17-17V141c0-9.39-7.61-17-17-17h0Z"/>
    </g>
    <g>
      <rect x="332.5" y="127.5" width="77" height="380" rx="13.5" ry="13.5"/>
      <path class="cls-1" d="M396,131c5.51,0,10,4.49,10,10V494c0,5.51-4.49,10-10,10h-50c-5.51,0-10-4.49-10-10V141c0-5.51,4.49-10,10-10h50m0-7h-50c-9.39,0-17,7.61-17,17V494c0,9.39,7.61,17,17,17h50c9.39,0,17-7.61,17-17V141c0-9.39-7.61-17-17-17h0Z"/>
    </g>
    <g>
      <rect x="461.5" y="127.5" width="77" height="380" rx="13.5" ry="13.5"/>
      <path class="cls-1" d="M525,131c5.51,0,10,4.49,10,10V494c0,5.51-4.49,10-10,10h-50c-5.51,0-10-4.49-10-10V141c0-5.51,4.49-10,10-10h50m0-7h-50c-9.39,0-17,7.61-17,17V494c0,9.39,7.61,17,17,17h50c9.39,0,17-7.61,17-17V141c0-9.39-7.61-17-17-17h0Z"/>
    </g>
    <g>
      <rect x="590.5" y="127.5" width="77" height="380" rx="13.5" ry="13.5"/>
      <path class="cls-1" d="M654,131c5.51,0,10,4.49,10,10V494c0,5.51-4.49,10-10,10h-50c-5.51,0-10-4.49-10-10V141c0-5.51,4.49-10,10-10h50m0-7h-50c-9.39,0-17,7.61-17,17V494c0,9.39,7.61,17,17,17h50c9.39,0,17-7.61,17-17V141c0-9.39-7.61-17-17-17h0Z"/>
    </g>
    <g>
      <rect x="719.5" y="127.5" width="77" height="380" rx="13.5" ry="13.5"/>
      <path class="cls-1" d="M783,131c5.51,0,10,4.49,10,10V494c0,5.51-4.49,10-10,10h-50c-5.51,0-10-4.49-10-10V141c0-5.51,4.49-10,10-10h50m0-7h-50c-9.39,0-17,7.61-17,17V494c0,9.39,7.61,17,17,17h50c9.39,0,17-7.61,17-17V141c0-9.39-7.61-17-17-17h0Z"/>
    </g>
    <g>
      <rect x="848.5" y="127.5" width="77" height="380" rx="13.5" ry="13.5"/>
      <path class="cls-1" d="M912,131c5.51,0,10,4.49,10,10V494c0,5.51-4.49,10-10,10h-50c-5.51,0-10-4.49-10-10V141c0-5.51,4.49-10,10-10h50m0-7h-50c-9.39,0-17,7.61-17,17V494c0,9.39,7.61,17,17,17h50c9.39,0,17-7.61,17-17V141c0-9.39-7.61-17-17-17h0Z"/>
    </g>
    <g>
      <rect x="977.5" y="127.5" width="77" height="380" rx="13.5" ry="13.5"/>
      <path class="cls-1" d="M1041,131c5.51,0,10,4.49,10,10V494c0,5.51-4.49,10-10,10h-50c-5.51,0-10-4.49-10-10V141c0-5.51,4.49-10,10-10h50m0-7h-50c-9.39,0-17,7.61-17,17V494c0,9.39,7.61,17,17,17h50c9.39,0,17-7.61,17-17V141c0-9.39-7.61-17-17-17h0Z"/>
    </g>
    <g>
      <rect x="1106.5" y="127.5" width="77" height="380" rx="13.5" ry="13.5"/>
      <path class="cls-1" d="M1170,131c5.51,0,10,4.49,10,10V494c0,5.51-4.49,10-10,10h-50c-5.51,0-10-4.49-10-10V141c0-5.51,4.49-10,10-10h50m0-7h-50c-9.39,0-17,7.61-17,17V494c0,9.39,7.61,17,17,17h50c9.39,0,17-7.61,17-17V141c0-9.39-7.61-17-17-17h0Z"/>
    </g>
    <g>
      <rect x="1235.5" y="127.5" width="77" height="380" rx="13.5" ry="13.5"/>
      <path class="cls-1" d="M1299,131c5.51,0,10,4.49,10,10V494c0,5.51-4.49,10-10,10h-50c-5.51,0-10-4.49-10-10V141c0-5.51,4.49-10,10-10h50m0-7h-50c-9.39,0-17,7.61-17,17V494c0,9.39,7.61,17,17,17h50c9.39,0,17-7.61,17-17V141c0-9.39-7.61-17-17-17h0Z"/>
    </g>
    <g>
      <rect class="cls-2" x="3.5" y="3.5" width="1508" height="273" rx="59" ry="59"/>
      <path d="M1452.5,7c30.6,0,55.5,24.9,55.5,55.5V217.5c0,30.6-24.9,55.5-55.5,55.5H62.5c-30.6,0-55.5-24.9-55.5-55.5V62.5C7,31.9,31.9,7,62.5,7H1452.5m0-7H62.5C27.98,0,0,27.98,0,62.5V217.5c0,34.52,27.98,62.5,62.5,62.5H1452.5c34.52,0,62.5-27.98,62.5-62.5V62.5c0-34.52-27.98-62.5-62.5-62.5h0Z"/>
    </g>
    <g>
      <rect class="cls-1" x="619.5" y="53.5" width="277" height="100" rx="14.5" ry="14.5"/>
      <path class="cls-10" d="M882,57c6.07,0,11,4.93,11,11v71c0,6.07-4.93,11-11,11h-248c-6.07,0-11-4.93-11-11V68c0-6.07,4.93-11,11-11h248m0-7h-248c-9.94,0-18,8.06-18,18v71c0,9.94,8.06,18,18,18h248c9.94,0,18-8.06,18-18V68c0-9.94-8.06-18-18-18h0Z"/>
    </g>
    <g>
      <path class="cls-1" d="M931.02,136.77c-3.61,0-7.52-2.87-7.52-7.52v-48.5c0-4.64,3.9-7.52,7.52-7.52,1.3,0,2.56,.34,3.73,1.02l42,24.25c2.35,1.36,3.75,3.78,3.75,6.5s-1.4,5.14-3.75,6.5l-42,24.25c-1.17,.68-2.43,1.02-3.73,1.02h0Z"/>
      <path class="cls-10" d="M931.02,76.73c.68,0,1.35,.19,1.98,.55l42,24.25c1.81,1.04,2,2.77,2,3.46s-.19,2.42-2,3.46l-42,24.25c-.63,.37-1.3,.55-1.98,.55-1.93,0-4.02-1.54-4.02-4.02v-48.5c0-2.48,2.08-4.02,4.02-4.02m0-7c-5.75,0-11.02,4.59-11.02,11.02v48.5c0,6.42,5.27,11.02,11.02,11.02,1.83,0,3.71-.47,5.48-1.49l42-24.25c7.33-4.23,7.33-14.82,0-19.05l-42-24.25c-1.77-1.02-3.65-1.49-5.48-1.49h0Z"/>
    </g>
    <g>
      <path class="cls-1" d="M588.98,136.77c-1.3,0-2.56-.34-3.73-1.02l-42-24.25c-2.35-1.36-3.75-3.78-3.75-6.5s1.4-5.14,3.75-6.5l42-24.25c1.17-.68,2.43-1.02,3.73-1.02,3.62,0,7.52,2.87,7.52,7.52v48.5c0,4.64-3.9,7.52-7.52,7.52Z"/>
      <path class="cls-10" d="M588.98,69.73v7c1.93,0,4.02,1.54,4.02,4.02v48.5c0,2.48-2.08,4.02-4.02,4.02-.68,0-1.35-.19-1.98-.55l-42-24.25c-1.81-1.04-2-2.77-2-3.46s.19-2.42,2-3.46l42-24.25c.63-.37,1.3-.55,1.98-.55v-7m0,0c-1.83,0-3.71,.47-5.48,1.49l-42,24.25c-7.33,4.23-7.33,14.82,0,19.05l42,24.25c1.77,1.02,3.65,1.49,5.48,1.49,5.75,0,11.02-4.6,11.02-11.02v-48.5c0-6.42-5.27-11.02-11.02-11.02h0Z"/>
    </g>
    <path class="cls-6" d="M675.5,90.25v-2.25h18v4.5h4.5v4.5h-9v-4.5h-9v9h18v4.5h4.5v9h-4.5v4.5h-22.5v-4.5h-4.5v-4.5h9v4.5h13.5v-9h-18v-4.5h-4.5v-9h4.5v-2.25Z"/>
    <path class="cls-7" d="M711.5,94.75v-6.75h9v13.5h9v-13.5h9v13.5h-4.5v4.5h-4.5v13.5h-9v-13.5h-4.5v-4.5h-4.5v-6.75Z"/>
    <path class="cls-5" d="M743,103.75v-15.75h9v4.5h4.5v4.5h4.5v4.5h4.5v-13.5h9v31.5h-9v-4.5h-4.5v-4.5h-4.5v-4.5h-4.5v13.5h-9v-15.75Z"/>
    <path class="cls-4" d="M783.5,90.25v-2.25h27v4.5h-9v27h-9v-27h-9v-2.25Z"/>
    <path class="cls-8" d="M815,103.75v-15.75h9v13.5h13.5v-13.5h9v31.5h-9v-13.5h-13.5v13.5h-9v-15.75Z"/>
    <g>
      <path class="cls-1" d="M692.35,236.21c-14.81,0-26.85-12.05-26.85-26.85s12.05-26.85,26.85-26.85h130.29c14.81,0,26.85,12.05,26.85,26.85s-12.05,26.85-26.85,26.85h-130.29Z"/>
      <path class="cls-9" d="M822.65,186c12.88,0,23.35,10.48,23.35,23.35s-10.48,23.35-23.35,23.35h-130.29c-12.88,0-23.35-10.48-23.35-23.35s10.48-23.35,23.35-23.35h130.29m0-7h-130.29c-16.76,0-30.35,13.59-30.35,30.35h0c0,16.76,13.59,30.35,30.35,30.35h130.29c16.76,0,30.35-13.59,30.35-30.35h0c0-16.76-13.59-30.35-30.35-30.35h0Z"/>
    </g>
    <text class="cls-11" transform="translate(716 213)"><tspan x="0" y="0">ON / OFF</tspan></text>
  </g>
</svg>